<svg xmlns="http://www.w3.org/2000/svg" width="1200" height="760" viewBox="0 0 1200 760" role="img" aria-label="Городская среда">
  <defs>
    <linearGradient id="g" x1="0" y1="0" x2="1" y2="1">
      <stop offset="0" stop-color="#dbeafe"/>
      <stop offset="1" stop-color="#e0e7ff"/>
    </linearGradient>
    <filter id="shadow" x="-20%" y="-20%" width="140%" height="140%">
      <feDropShadow dx="0" dy="18" stdDeviation="18" flood-color="#0b1f4d" flood-opacity="0.18"/>
    </filter>
  </defs>
  <rect width="1200" height="760" fill="url(#g)"/>
  <circle cx="1050" cy="110" r="170" fill="#ffffff" opacity="0.16"/>
  <circle cx="120" cy="640" r="210" fill="#ffffff" opacity="0.12"/>
  <path d="M0 600 C 260 520, 420 700, 690 600 S 1010 520, 1200 620 L1200 760 L0 760 Z" fill="#ffffff" opacity="0.14"/>
  <g filter="url(#shadow)"><g transform="translate(640 210)"><rect x="40" y="170" width="110" height="260" rx="18" fill="#ffffff" opacity=".94"/><rect x="180" y="90" width="130" height="340" rx="20" fill="#dbeafe" opacity=".96"/><rect x="340" y="150" width="120" height="280" rx="20" fill="#ffffff" opacity=".86"/><g fill="#0b1f4d" opacity=".25"><rect x="70" y="205" width="28" height="28"/><rect x="110" y="205" width="28" height="28"/><rect x="70" y="255" width="28" height="28"/><rect x="110" y="255" width="28" height="28"/><rect x="215" y="135" width="28" height="28"/><rect x="260" y="135" width="28" height="28"/><rect x="215" y="190" width="28" height="28"/><rect x="260" y="190" width="28" height="28"/><rect x="375" y="195" width="28" height="28"/><rect x="415" y="195" width="28" height="28"/></g><path d="M0 455 C120 405 280 405 520 455" stroke="#fff" stroke-width="38" fill="none" opacity=".9"/></g></g>
  <g font-family="Inter, Arial, sans-serif">
    <rect x="70" y="70" width="520" height="150" rx="34" fill="#ffffff" opacity="0.92"/>
    <text x="110" y="130" font-size="44" font-weight="800" fill="#0b1f4d">Городская среда</text>
    <text x="112" y="176" font-size="24" font-weight="600" fill="#667085">инфраструктура рядом</text>
    <text x="112" y="205" font-size="18" font-weight="700" fill="#b42318">сфера жизни</text>
  </g>
</svg>