<svg xmlns="http://www.w3.org/2000/svg" width="1200" height="760" viewBox="0 0 1200 760" role="img" aria-label="Экология">
  <defs>
    <linearGradient id="g" x1="0" y1="0" x2="1" y2="1">
      <stop offset="0" stop-color="#dcfce7"/>
      <stop offset="1" stop-color="#e0f2fe"/>
    </linearGradient>
    <filter id="shadow" x="-20%" y="-20%" width="140%" height="140%">
      <feDropShadow dx="0" dy="18" stdDeviation="18" flood-color="#0b1f4d" flood-opacity="0.18"/>
    </filter>
  </defs>
  <rect width="1200" height="760" fill="url(#g)"/>
  <circle cx="1050" cy="110" r="170" fill="#ffffff" opacity="0.16"/>
  <circle cx="120" cy="640" r="210" fill="#ffffff" opacity="0.12"/>
  <path d="M0 600 C 260 520, 420 700, 690 600 S 1010 520, 1200 620 L1200 760 L0 760 Z" fill="#ffffff" opacity="0.14"/>
  <g filter="url(#shadow)"><g transform="translate(650 210)"><rect x="40" y="180" width="420" height="250" rx="50" fill="#fff" opacity=".9"/><path d="M255 355 C230 230 310 110 445 75 C455 215 390 330 255 355 Z" fill="#dcfce7"/><path d="M250 355 C245 250 180 170 70 150 C72 270 135 350 250 355 Z" fill="#bbf7d0"/><path d="M245 365 C270 280 335 190 420 100" stroke="#067647" stroke-width="18" fill="none" stroke-linecap="round"/><path d="M240 360 C200 275 150 215 80 160" stroke="#067647" stroke-width="14" fill="none" stroke-linecap="round"/></g></g>
  <g font-family="Inter, Arial, sans-serif">
    <rect x="70" y="70" width="520" height="150" rx="34" fill="#ffffff" opacity="0.92"/>
    <text x="110" y="130" font-size="44" font-weight="800" fill="#0b1f4d">Экология</text>
    <text x="112" y="176" font-size="24" font-weight="600" fill="#667085">качество среды</text>
    <text x="112" y="205" font-size="18" font-weight="700" fill="#b42318">сфера жизни</text>
  </g>
</svg>