<svg xmlns="http://www.w3.org/2000/svg" width="1200" height="760" viewBox="0 0 1200 760" role="img" aria-label="Экономика">
  <defs>
    <linearGradient id="g" x1="0" y1="0" x2="1" y2="1">
      <stop offset="0" stop-color="#e0f2fe"/>
      <stop offset="1" stop-color="#f3e8ff"/>
    </linearGradient>
    <filter id="shadow" x="-20%" y="-20%" width="140%" height="140%">
      <feDropShadow dx="0" dy="18" stdDeviation="18" flood-color="#0b1f4d" flood-opacity="0.18"/>
    </filter>
  </defs>
  <rect width="1200" height="760" fill="url(#g)"/>
  <circle cx="1050" cy="110" r="170" fill="#ffffff" opacity="0.16"/>
  <circle cx="120" cy="640" r="210" fill="#ffffff" opacity="0.12"/>
  <path d="M0 600 C 260 520, 420 700, 690 600 S 1010 520, 1200 620 L1200 760 L0 760 Z" fill="#ffffff" opacity="0.14"/>
  <g filter="url(#shadow)"><g transform="translate(660 230)"><rect x="60" y="60" width="390" height="300" rx="42" fill="#fff" opacity=".92"/><path d="M115 275 L190 200 L260 235 L360 130" stroke="#b42318" stroke-width="22" fill="none" stroke-linecap="round" stroke-linejoin="round"/><circle cx="115" cy="275" r="18" fill="#0b1f4d"/><circle cx="190" cy="200" r="18" fill="#0b1f4d"/><circle cx="260" cy="235" r="18" fill="#0b1f4d"/><circle cx="360" cy="130" r="18" fill="#0b1f4d"/><rect x="110" y="310" width="270" height="18" rx="9" fill="#dbeafe"/><path d="M410 105 l40 20 -35 30" stroke="#b42318" stroke-width="16" fill="none" stroke-linecap="round"/></g></g>
  <g font-family="Inter, Arial, sans-serif">
    <rect x="70" y="70" width="520" height="150" rx="34" fill="#ffffff" opacity="0.92"/>
    <text x="110" y="130" font-size="44" font-weight="800" fill="#0b1f4d">Экономика</text>
    <text x="112" y="176" font-size="24" font-weight="600" fill="#667085">работа и технологии</text>
    <text x="112" y="205" font-size="18" font-weight="700" fill="#b42318">сфера жизни</text>
  </g>
</svg>