<svg xmlns="http://www.w3.org/2000/svg" width="1200" height="760" viewBox="0 0 1200 760" role="img" aria-label="Семья">
  <defs>
    <linearGradient id="g" x1="0" y1="0" x2="1" y2="1">
      <stop offset="0" stop-color="#fff1f2"/>
      <stop offset="1" stop-color="#dbeafe"/>
    </linearGradient>
    <filter id="shadow" x="-20%" y="-20%" width="140%" height="140%">
      <feDropShadow dx="0" dy="18" stdDeviation="18" flood-color="#0b1f4d" flood-opacity="0.18"/>
    </filter>
  </defs>
  <rect width="1200" height="760" fill="url(#g)"/>
  <circle cx="1050" cy="110" r="170" fill="#ffffff" opacity="0.16"/>
  <circle cx="120" cy="640" r="210" fill="#ffffff" opacity="0.12"/>
  <path d="M0 600 C 260 520, 420 700, 690 600 S 1010 520, 1200 620 L1200 760 L0 760 Z" fill="#ffffff" opacity="0.14"/>
  <g filter="url(#shadow)"><g transform="translate(710 280)"><rect x="-70" y="100" width="360" height="220" rx="46" fill="#fff" opacity=".9"/><circle cx="20" cy="40" r="58" fill="#ffffff"/><circle cx="150" cy="20" r="68" fill="#ffffff"/><circle cx="260" cy="70" r="48" fill="#ffffff"/><rect x="-10" y="100" width="80" height="180" rx="38" fill="#fee2e2"/><rect x="105" y="92" width="92" height="190" rx="44" fill="#dbeafe"/><rect x="228" y="120" width="65" height="150" rx="32" fill="#dcfce7"/><path d="M30 300 C 95 250, 185 255, 260 302" stroke="#b42318" stroke-width="18" fill="none" stroke-linecap="round"/></g></g>
  <g font-family="Inter, Arial, sans-serif">
    <rect x="70" y="70" width="520" height="150" rx="34" fill="#ffffff" opacity="0.92"/>
    <text x="110" y="130" font-size="44" font-weight="800" fill="#0b1f4d">Семья</text>
    <text x="112" y="176" font-size="24" font-weight="600" fill="#667085">поддержка и качество жизни</text>
    <text x="112" y="205" font-size="18" font-weight="700" fill="#b42318">сфера жизни</text>
  </g>
</svg>