<svg xmlns="http://www.w3.org/2000/svg" width="1200" height="760" viewBox="0 0 1200 760" role="img" aria-label="Здоровье">
  <defs>
    <linearGradient id="g" x1="0" y1="0" x2="1" y2="1">
      <stop offset="0" stop-color="#e0f2fe"/>
      <stop offset="1" stop-color="#fee2e2"/>
    </linearGradient>
    <filter id="shadow" x="-20%" y="-20%" width="140%" height="140%">
      <feDropShadow dx="0" dy="18" stdDeviation="18" flood-color="#0b1f4d" flood-opacity="0.18"/>
    </filter>
  </defs>
  <rect width="1200" height="760" fill="url(#g)"/>
  <circle cx="1050" cy="110" r="170" fill="#ffffff" opacity="0.16"/>
  <circle cx="120" cy="640" r="210" fill="#ffffff" opacity="0.12"/>
  <path d="M0 600 C 260 520, 420 700, 690 600 S 1010 520, 1200 620 L1200 760 L0 760 Z" fill="#ffffff" opacity="0.14"/>
  <g filter="url(#shadow)"><g transform="translate(710 250)"><rect x="-20" y="0" width="360" height="300" rx="48" fill="#fff" opacity=".92"/><rect x="110" y="45" width="100" height="210" rx="20" fill="#dbeafe"/><rect x="55" y="100" width="210" height="100" rx="20" fill="#fee2e2"/><rect x="140" y="72" width="40" height="155" rx="12" fill="#b42318"/><rect x="84" y="128" width="153" height="40" rx="12" fill="#b42318"/><circle cx="285" cy="50" r="35" fill="#dcfce7"/><path d="M40 265 H290" stroke="#0b1f4d" stroke-width="18" stroke-linecap="round" opacity=".22"/></g></g>
  <g font-family="Inter, Arial, sans-serif">
    <rect x="70" y="70" width="520" height="150" rx="34" fill="#ffffff" opacity="0.92"/>
    <text x="110" y="130" font-size="44" font-weight="800" fill="#0b1f4d">Здоровье</text>
    <text x="112" y="176" font-size="24" font-weight="600" fill="#667085">доступность помощи</text>
    <text x="112" y="205" font-size="18" font-weight="700" fill="#b42318">сфера жизни</text>
  </g>
</svg>