<svg xmlns="http://www.w3.org/2000/svg" width="1200" height="760" viewBox="0 0 1200 760" role="img" aria-label="Результаты">
  <defs>
    <linearGradient id="g" x1="0" y1="0" x2="1" y2="1">
      <stop offset="0" stop-color="#f8fafc"/>
      <stop offset="1" stop-color="#fee2e2"/>
    </linearGradient>
    <filter id="shadow" x="-20%" y="-20%" width="140%" height="140%">
      <feDropShadow dx="0" dy="18" stdDeviation="18" flood-color="#0b1f4d" flood-opacity="0.18"/>
    </filter>
  </defs>
  <rect width="1200" height="760" fill="url(#g)"/>
  <circle cx="1050" cy="110" r="170" fill="#ffffff" opacity="0.16"/>
  <circle cx="120" cy="640" r="210" fill="#ffffff" opacity="0.12"/>
  <path d="M0 600 C 260 520, 420 700, 690 600 S 1010 520, 1200 620 L1200 760 L0 760 Z" fill="#ffffff" opacity="0.14"/>
  <g filter="url(#shadow)"><g transform="translate(650 230)"><rect x="40" y="50" width="430" height="330" rx="46" fill="#fff" opacity=".92"/><rect x="95" y="105" width="320" height="46" rx="23" fill="#dbeafe"/><rect x="95" y="185" width="230" height="46" rx="23" fill="#fee2e2"/><rect x="95" y="265" width="285" height="46" rx="23" fill="#dcfce7"/><circle cx="395" cy="288" r="70" fill="#b42318" opacity=".9"/><path d="M365 288 l25 25 48-56" stroke="#fff" stroke-width="16" fill="none" stroke-linecap="round" stroke-linejoin="round"/></g></g>
  <g font-family="Inter, Arial, sans-serif">
    <rect x="70" y="70" width="520" height="150" rx="34" fill="#ffffff" opacity="0.92"/>
    <text x="110" y="130" font-size="44" font-weight="800" fill="#0b1f4d">Результаты</text>
    <text x="112" y="176" font-size="24" font-weight="600" fill="#667085">от мер к изменениям</text>
    <text x="112" y="205" font-size="18" font-weight="700" fill="#b42318">практическая реализация</text>
  </g>
</svg>